<svg xmlns="http://www.w3.org/2000/svg" viewBox="0 0 420 260">
<rect width="420" height="260" fill="#fff"/>
<g opacity=".96">
<g fill="#d94c43" stroke="#a92428" stroke-width="4"><ellipse cx="115" cy="85" rx="38" ry="23"/><ellipse cx="182" cy="150" rx="43" ry="26"/><ellipse cx="276" cy="91" rx="37" ry="22"/><ellipse cx="330" cy="176" rx="39" ry="24"/><ellipse cx="86" cy="195" rx="31" ry="20"/></g>
<g fill="#f2a59d"><ellipse cx="115" cy="85" rx="23" ry="11"/><ellipse cx="182" cy="150" rx="26" ry="13"/><ellipse cx="276" cy="91" rx="22" ry="10"/><ellipse cx="330" cy="176" rx="24" ry="11"/><ellipse cx="86" cy="195" rx="18" ry="9"/></g>
<g fill="#8d6ac8"><circle cx="220" cy="68" r="18"/><circle cx="245" cy="192" r="21"/><circle cx="348" cy="66" r="15"/></g>
<g fill="#f1c66d"><circle cx="158" cy="55" r="8"/><circle cx="302" cy="137" r="9"/><circle cx="138" cy="216" r="7"/></g>
</g>
<text x="226" y="238" font-family="Arial" font-size="16" fill="#5c6f88">real-world matrices</text>
</svg>
